<svg width="20" height="19" viewBox="0 0 20 19" fill="none" xmlns="http://www.w3.org/2000/svg">
<path d="M9.08194 1.50412C9.46891 0.831959 10.5311 0.83196 10.9181 1.50412L13.1626 5.40294C13.4474 5.89759 13.871 6.29676 14.3768 6.55957L18.4809 8.69191C19.173 9.05155 19.1731 9.94844 18.4808 10.3081L14.3768 12.4404C13.871 12.7032 13.4474 13.1024 13.1626 13.5971L10.9181 17.4959C10.5311 18.168 9.46891 18.168 9.08194 17.4959L6.83738 13.5971C6.5526 13.1024 6.12899 12.7032 5.62317 12.4404L1.51915 10.3081C0.82695 9.94844 0.826949 9.05155 1.51915 8.69191L5.62317 6.55957C6.12899 6.29676 6.55261 5.89759 6.83738 5.40294L9.08194 1.50412Z" stroke="url(#paint0_linear_11_315)" stroke-width="2"/>
<defs>
<linearGradient id="paint0_linear_11_315" x1="0" y1="9.63768" x2="20" y2="9.63768" gradientUnits="userSpaceOnUse">
<stop stop-color="#FF5093"/>
<stop offset="1" stop-color="#9A37E7"/>
</linearGradient>
</defs>
</svg>
